<?xml version="1.0" encoding="UTF-8"?>
<svg version="1.1" xmlns="http://www.w3.org/2000/svg" width="500" height="500">
<path d="M0 0 C2.13028287 0.64554026 4.26615755 1.26899285 6.40380859 1.88964844 C16.81334477 4.96715337 16.81334477 4.96715337 19.11083984 7.26464844 C19.17333984 9.70214844 19.17333984 9.70214844 18.11083984 12.26464844 C14.1470776 14.43349947 11.65006368 15.26464844 7.11083984 15.26464844 C7.11083984 15.92464844 7.11083984 16.58464844 7.11083984 17.26464844 C14.26451728 18.31822222 21.3891988 18.58510442 28.61083984 18.82714844 C29.81482422 18.87033203 31.01880859 18.91351563 32.25927734 18.95800781 C35.20970177 19.06338011 38.16020056 19.16550747 41.11083984 19.26464844 C41.11083984 21.24464844 41.11083984 23.22464844 41.11083984 25.26464844 C40.46646973 25.27399414 39.82209961 25.28333984 39.15820312 25.29296875 C36.18336217 25.34729888 33.20999007 25.43081822 30.23583984 25.51464844 C29.22263672 25.52882812 28.20943359 25.54300781 27.16552734 25.55761719 C20.07686705 25.78481784 14.50058127 27.1858099 8.11083984 30.26464844 C9.75667318 30.7438151 11.40250651 31.22298177 13.04833984 31.70214844 C17.98583984 33.13964844 17.98583984 33.13964844 19.11083984 34.26464844 C19.15147816 35.93081959 19.15356085 37.59852939 19.11083984 39.26464844 C11.68274194 42.92027138 3.98909183 45.23500672 -3.95166016 47.51464844 C-5.19882813 47.87816406 -6.44599609 48.24167969 -7.73095703 48.61621094 C-10.78210289 49.5046672 -13.8347992 50.3873218 -16.88916016 51.26464844 C-16.93852173 56.35496599 -16.9748612 61.44514487 -16.99902344 66.53564453 C-17.00909391 68.26809108 -17.02275105 70.00052059 -17.04003906 71.73291016 C-17.06424178 74.22009482 -17.07563254 76.70705519 -17.08447266 79.19433594 C-17.09479523 79.97146942 -17.1051178 80.74860291 -17.11575317 81.54928589 C-17.11615287 83.45590337 -17.01148156 85.3619588 -16.88916016 87.26464844 C-14.20447749 89.9493311 -12.15545915 89.50584263 -8.50679016 89.52459717 C-7.61010117 89.51897766 -6.71341217 89.51335815 -5.78955078 89.50756836 C-4.84637497 89.50946671 -3.90319916 89.51136505 -2.93144226 89.51332092 C0.19731871 89.51703636 3.32584937 89.50631354 6.45458984 89.49511719 C8.62170382 89.4939257 10.78881833 89.49347216 12.95593262 89.49372864 C17.50223005 89.49216244 22.0484489 89.4838624 26.59472656 89.47045898 C32.43267688 89.45346898 38.27054073 89.44964457 44.10851288 89.45040417 C48.58478628 89.45013269 53.06104065 89.44465509 57.53730774 89.43740273 C59.69037227 89.43421255 61.84343897 89.43224784 63.99650574 89.43150902 C67.00145163 89.42934915 70.00630445 89.42061253 73.01123047 89.40991211 C74.35626396 89.41059189 74.35626396 89.41059189 75.72846985 89.4112854 C80.05591617 89.52015328 80.05591617 89.52015328 84.11083984 88.26464844 C84.44083984 81.33464844 84.77083984 74.40464844 85.11083984 67.26464844 C88.08083984 67.26464844 91.05083984 67.26464844 94.11083984 67.26464844 C94.0637085 68.03019043 94.01657715 68.79573242 93.96801758 69.58447266 C93.77925664 73.10216942 93.6633883 76.61880046 93.54833984 80.13964844 C93.43522461 81.945625 93.43522461 81.945625 93.31982422 83.78808594 C93.15115562 90.68475768 93.67613148 94.62076331 98.39599609 99.83496094 C99.96138085 101.31812639 101.53287855 102.79487044 103.11083984 104.26464844 C107.00100191 108.77647984 107.00100191 108.77647984 107.67333984 111.76464844 C107.04507607 114.55693188 106.08633706 116.22313185 104.0056324 118.19636154 C99.57305325 120.69545634 93.96941101 119.95139487 89.03051758 119.91162109 C87.68652157 119.91840017 86.34253485 119.92730494 84.99856567 119.93817139 C81.355915 119.96093566 77.71397358 119.95214155 74.07131076 119.93627596 C70.25748729 119.92360437 66.44372396 119.93536031 62.62989807 119.94320679 C56.22670603 119.95229864 49.82380252 119.94032671 43.4206543 119.91650391 C36.01830141 119.88928158 28.61663685 119.89811614 21.21430057 119.92563593 C14.85659278 119.94832562 8.4990922 119.95152824 2.141357 119.93844259 C-1.65495173 119.93064866 -5.45093688 119.92960471 -9.24722481 119.94612503 C-12.81554395 119.9605693 -16.38297535 119.95055078 -19.95119858 119.92165375 C-21.88506093 119.91188956 -23.81899838 119.92674288 -25.75282288 119.94229126 C-26.90383484 119.92819214 -28.0548468 119.91409302 -29.24073792 119.89956665 C-30.24084176 119.89768152 -31.24094561 119.89579639 -32.27135563 119.89385414 C-35.87552669 119.02756907 -36.91983596 117.317441 -38.88916016 114.26464844 C-39.51123047 111.81591797 -39.51123047 111.81591797 -38.88916016 109.26464844 C-37.51393419 107.82973115 -36.12621812 106.40319117 -34.6585083 105.0630188 C-28.83510908 99.59051751 -26.17592584 94.91682029 -25.7388916 86.86968994 C-25.70206321 81.69696557 -25.88577945 76.55526833 -26.13916016 71.38964844 C-26.19947475 69.23745502 -26.2542061 67.08509755 -26.30322266 64.93261719 C-26.43423828 59.70632693 -26.6339481 54.48627163 -26.88916016 49.26464844 C-27.478302 49.13826492 -28.06744385 49.01188141 -28.67443848 48.88166809 C-34.71637406 47.56606418 -40.52909769 45.92711049 -46.38916016 43.95214844 C-47.29408203 43.66919922 -48.19900391 43.38625 -49.13134766 43.09472656 C-51.51546439 42.28749184 -53.70386697 41.51448072 -55.88916016 40.26464844 C-56.98291016 37.53417969 -56.98291016 37.53417969 -56.88916016 35.26464844 C-52.93392361 32.50796842 -49.66492354 31.73286053 -44.88916016 31.26464844 C-44.88916016 30.60464844 -44.88916016 29.94464844 -44.88916016 29.26464844 C-45.81148437 29.08289063 -45.81148437 29.08289063 -46.75244141 28.89746094 C-47.56068359 28.72988281 -48.36892578 28.56230469 -49.20166016 28.38964844 C-50.00216797 28.22722656 -50.80267578 28.06480469 -51.62744141 27.89746094 C-53.88916016 27.26464844 -53.88916016 27.26464844 -56.88916016 25.26464844 C-56.82666016 22.95214844 -56.82666016 22.95214844 -55.88916016 20.26464844 C-51.92539792 18.0957974 -49.428384 17.26464844 -44.88916016 17.26464844 C-44.88916016 16.60464844 -44.88916016 15.94464844 -44.88916016 15.26464844 C-45.94103516 15.16152344 -46.99291016 15.05839844 -48.07666016 14.95214844 C-51.7634677 14.28731429 -53.85554615 13.37898547 -56.88916016 11.26464844 C-56.55916016 9.61464844 -56.22916016 7.96464844 -55.88916016 6.26464844 C-50.90165414 4.55858743 -45.90105542 2.89729469 -40.88916016 1.26464844 C-40.15729492 1.02456055 -39.42542969 0.78447266 -38.67138672 0.53710938 C-36.47806766 -0.17462992 -34.27880042 -0.86394936 -32.07666016 -1.54785156 C-31.40900635 -1.76658936 -30.74135254 -1.98532715 -30.0534668 -2.21069336 C-19.46731186 -5.4278384 -10.2990466 -3.12559329 0 0 Z M15.11083984 106.26464844 C14.45083984 107.91464844 13.79083984 109.56464844 13.11083984 111.26464844 C26.97083984 111.26464844 40.83083984 111.26464844 55.11083984 111.26464844 C54.45083984 109.61464844 53.79083984 107.96464844 53.11083984 106.26464844 C40.57083984 106.26464844 28.03083984 106.26464844 15.11083984 106.26464844 Z M22.11083984 114.26464844 C22.11083984 114.92464844 22.11083984 115.58464844 22.11083984 116.26464844 C30.03083984 116.26464844 37.95083984 116.26464844 46.11083984 116.26464844 C46.11083984 115.60464844 46.11083984 114.94464844 46.11083984 114.26464844 C38.19083984 114.26464844 30.27083984 114.26464844 22.11083984 114.26464844 Z " fill="#0A42C6" transform="translate(214.88916015625,158.7353515625)"/>
<path d="M0 0 C2.13028287 0.64554026 4.26615755 1.26899285 6.40380859 1.88964844 C16.81334477 4.96715337 16.81334477 4.96715337 19.11083984 7.26464844 C19.17333984 9.70214844 19.17333984 9.70214844 18.11083984 12.26464844 C14.1470776 14.43349947 11.65006368 15.26464844 7.11083984 15.26464844 C7.11083984 15.92464844 7.11083984 16.58464844 7.11083984 17.26464844 C14.26451728 18.31822222 21.3891988 18.58510442 28.61083984 18.82714844 C29.81482422 18.87033203 31.01880859 18.91351563 32.25927734 18.95800781 C35.20970177 19.06338011 38.16020056 19.16550747 41.11083984 19.26464844 C41.11083984 21.24464844 41.11083984 23.22464844 41.11083984 25.26464844 C40.46646973 25.27399414 39.82209961 25.28333984 39.15820312 25.29296875 C36.18336217 25.34729888 33.20999007 25.43081822 30.23583984 25.51464844 C29.22263672 25.52882812 28.20943359 25.54300781 27.16552734 25.55761719 C20.07686705 25.78481784 14.50058127 27.1858099 8.11083984 30.26464844 C9.75667318 30.7438151 11.40250651 31.22298177 13.04833984 31.70214844 C17.98583984 33.13964844 17.98583984 33.13964844 19.11083984 34.26464844 C19.15147816 35.93081959 19.15356085 37.59852939 19.11083984 39.26464844 C4.95938896 46.00506941 -13.05693168 54.23910549 -28.75244141 49.72558594 C-29.3848877 49.5009668 -30.01733398 49.27634766 -30.66894531 49.04492188 C-33.39891596 48.0854996 -36.16185566 47.26445494 -38.93212891 46.42871094 C-41.06569426 45.75550173 -43.19722413 45.07580728 -45.32666016 44.38964844 C-46.3537207 44.06287109 -47.38078125 43.73609375 -48.43896484 43.39941406 C-49.86644043 42.90344727 -49.86644043 42.90344727 -51.32275391 42.39746094 C-52.17925537 42.10758301 -53.03575684 41.81770508 -53.91821289 41.51904297 C-55.88916016 40.26464844 -55.88916016 40.26464844 -56.67456055 37.63134766 C-56.74537842 36.85033691 -56.81619629 36.06932617 -56.88916016 35.26464844 C-52.93392361 32.50796842 -49.66492354 31.73286053 -44.88916016 31.26464844 C-44.88916016 30.60464844 -44.88916016 29.94464844 -44.88916016 29.26464844 C-45.81148437 29.08289063 -45.81148437 29.08289063 -46.75244141 28.89746094 C-47.56068359 28.72988281 -48.36892578 28.56230469 -49.20166016 28.38964844 C-50.00216797 28.22722656 -50.80267578 28.06480469 -51.62744141 27.89746094 C-53.88916016 27.26464844 -53.88916016 27.26464844 -56.88916016 25.26464844 C-56.82666016 22.95214844 -56.82666016 22.95214844 -55.88916016 20.26464844 C-51.92539792 18.0957974 -49.428384 17.26464844 -44.88916016 17.26464844 C-44.88916016 16.60464844 -44.88916016 15.94464844 -44.88916016 15.26464844 C-45.94103516 15.16152344 -46.99291016 15.05839844 -48.07666016 14.95214844 C-51.7634677 14.28731429 -53.85554615 13.37898547 -56.88916016 11.26464844 C-56.55916016 9.61464844 -56.22916016 7.96464844 -55.88916016 6.26464844 C-50.90165414 4.55858743 -45.90105542 2.89729469 -40.88916016 1.26464844 C-40.15729492 1.02456055 -39.42542969 0.78447266 -38.67138672 0.53710938 C-36.47806766 -0.17462992 -34.27880042 -0.86394936 -32.07666016 -1.54785156 C-31.40900635 -1.76658936 -30.74135254 -1.98532715 -30.0534668 -2.21069336 C-19.46731186 -5.4278384 -10.2990466 -3.12559329 0 0 Z " fill="#F9D5F2" transform="translate(214.88916015625,158.7353515625)"/>
<path d="M0 0 C2.13028287 0.64554026 4.26615755 1.26899285 6.40380859 1.88964844 C16.81334477 4.96715337 16.81334477 4.96715337 19.11083984 7.26464844 C19.17333984 9.70214844 19.17333984 9.70214844 18.11083984 12.26464844 C14.1470776 14.43349947 11.65006368 15.26464844 7.11083984 15.26464844 C7.11083984 15.92464844 7.11083984 16.58464844 7.11083984 17.26464844 C5.48275391 17.5546875 5.48275391 17.5546875 3.82177734 17.85058594 C2.37642316 18.11337761 0.93111296 18.3764113 -0.51416016 18.63964844 C-1.22701172 18.76597656 -1.93986328 18.89230469 -2.67431641 19.02246094 C-5.91123741 19.6163914 -8.92873846 20.27792254 -12.05712891 21.32714844 C-14.96598265 22.29007933 -17.52814051 22.66005282 -20.57666016 22.88964844 C-21.50865234 22.96441406 -22.44064453 23.03917969 -23.40087891 23.11621094 C-28.21435942 23.40335734 -33.06794109 23.26464844 -37.88916016 23.26464844 C-38.21916016 23.92464844 -38.54916016 24.58464844 -38.88916016 25.26464844 C-37.91978516 25.53277344 -36.95041016 25.80089844 -35.95166016 26.07714844 C-34.94103516 26.46902344 -33.93041016 26.86089844 -32.88916016 27.26464844 C-32.55916016 28.25464844 -32.22916016 29.24464844 -31.88916016 30.26464844 C-32.88916016 31.26464844 -32.88916016 31.26464844 -35.22509766 31.28417969 C-42.24978435 30.80563419 -49.81929067 30.13661021 -55.88916016 26.26464844 C-56.68994141 23.62402344 -56.68994141 23.62402344 -56.88916016 21.26464844 C-52.93392361 18.50796842 -49.66492354 17.73286053 -44.88916016 17.26464844 C-44.88916016 16.60464844 -44.88916016 15.94464844 -44.88916016 15.26464844 C-45.94103516 15.16152344 -46.99291016 15.05839844 -48.07666016 14.95214844 C-51.7634677 14.28731429 -53.85554615 13.37898547 -56.88916016 11.26464844 C-56.55916016 9.61464844 -56.22916016 7.96464844 -55.88916016 6.26464844 C-50.90165414 4.55858743 -45.90105542 2.89729469 -40.88916016 1.26464844 C-40.15729492 1.02456055 -39.42542969 0.78447266 -38.67138672 0.53710938 C-36.47806766 -0.17462992 -34.27880042 -0.86394936 -32.07666016 -1.54785156 C-31.40900635 -1.76658936 -30.74135254 -1.98532715 -30.0534668 -2.21069336 C-19.46731186 -5.4278384 -10.2990466 -3.12559329 0 0 Z " fill="#0C44C5" transform="translate(214.88916015625,158.7353515625)"/>
<path d="M0 0 C9.57 0 19.14 0 29 0 C29 9.57 29 19.14 29 29 C19.43 29 9.86 29 0 29 C-1.25895547 26.48208905 -1.12938941 24.72930725 -1.1328125 21.9140625 C-1.13410156 20.90085938 -1.13539063 19.88765625 -1.13671875 18.84375 C-1.13285156 17.7815625 -1.12898438 16.719375 -1.125 15.625 C-1.13080078 14.04332031 -1.13080078 14.04332031 -1.13671875 12.4296875 C-1.13542969 11.41390625 -1.13414062 10.398125 -1.1328125 9.3515625 C-1.13168457 8.42166504 -1.13055664 7.49176758 -1.12939453 6.53369141 C-1 4 -1 4 0 0 Z " fill="#0A74AD" transform="translate(306,155)"/>
<path d="M0 0 C2.99887566 0.55342449 5.8642404 0.71620697 8.91162109 0.82128906 C10.06855469 0.86318359 11.22548828 0.90507812 12.41748047 0.94824219 C13.61566406 0.98755859 14.81384766 1.026875 16.04833984 1.06738281 C17.26585937 1.11056641 18.48337891 1.15375 19.73779297 1.19824219 C22.73703455 1.30409777 25.73635575 1.40618008 28.73583984 1.50488281 C28.73583984 3.48488281 28.73583984 5.46488281 28.73583984 7.50488281 C28.10718018 7.51422852 27.47852051 7.52357422 26.83081055 7.53320312 C14.78643633 7.75794037 4.11425651 8.287248 -7.26416016 12.50488281 C-10.68816655 13.63316767 -14.13049273 14.69657147 -17.57666016 15.75488281 C-18.41350342 16.02518311 -19.25034668 16.2954834 -20.11254883 16.57397461 C-28.2676559 19.09803911 -34.47158956 19.056443 -42.76416016 16.50488281 C-43.99134766 16.13363281 -45.21853516 15.76238281 -46.48291016 15.37988281 C-47.40072266 15.09113281 -48.31853516 14.80238281 -49.26416016 14.50488281 C-47.94416016 13.51488281 -46.62416016 12.52488281 -45.26416016 11.50488281 C-46.06853516 11.25738281 -46.87291016 11.00988281 -47.70166016 10.75488281 C-50.26416016 9.50488281 -50.26416016 9.50488281 -51.07666016 7.37988281 C-51.13853516 6.76113281 -51.20041016 6.14238281 -51.26416016 5.50488281 C-47.93881259 4.39643362 -45.6423344 4.66033925 -42.26416016 5.50488281 C-42.26416016 4.84488281 -42.26416016 4.18488281 -42.26416016 3.50488281 C-41.60416016 3.83488281 -40.94416016 4.16488281 -40.26416016 4.50488281 C-33.28583618 4.50488281 -26.93167584 3.52047415 -20.26416016 1.44238281 C-13.45444098 -0.62071542 -7.02172845 -1.53548256 0 0 Z " fill="#9396DF" transform="translate(227.26416015625,176.4951171875)"/>
<path d="M0 0 C4.62 0 9.24 0 14 0 C14 4.95 14 9.9 14 15 C18.29 15 22.58 15 27 15 C27 19.95 27 24.9 27 30 C22.05 30 17.1 30 12 30 C12 25.05 12 20.1 12 15 C8.04 15 4.08 15 0 15 C0 10.05 0 5.1 0 0 Z " fill="#0F73AC" transform="translate(266,197)"/>
<path d="M0 0 C6.6 0 13.2 0 20 0 C20.020625 3.279375 20.04125 6.55875 20.0625 9.9375 C20.071604 10.97253662 20.08070801 12.00757324 20.09008789 13.07397461 C20.09258545 13.88358643 20.09508301 14.69319824 20.09765625 15.52734375 C20.10551147 16.77632446 20.10551147 16.77632446 20.11352539 18.05053711 C20 20 20 20 19 21 C17.66956375 21.0983721 16.33406656 21.13078592 15 21.1328125 C14.195625 21.13410156 13.39125 21.13539063 12.5625 21.13671875 C11.716875 21.13285156 10.87125 21.12898438 10 21.125 C9.154375 21.12886719 8.30875 21.13273437 7.4375 21.13671875 C6.633125 21.13542969 5.82875 21.13414062 5 21.1328125 C4.2575 21.13168457 3.515 21.13055664 2.75 21.12939453 C1 21 1 21 0 20 C-0.08669432 18.5112814 -0.10703494 17.018555 -0.09765625 15.52734375 C-0.09515869 14.71773193 -0.09266113 13.90812012 -0.09008789 13.07397461 C-0.08098389 12.03893799 -0.07187988 11.00390137 -0.0625 9.9375 C-0.0315625 5.0184375 -0.0315625 5.0184375 0 0 Z " fill="#3FB9F8" transform="translate(282,174)"/>
<path d="M0 0 C1.65 0 3.3 0 5 0 C5.01981934 1.11036621 5.03963867 2.22073242 5.06005859 3.36474609 C5.13601081 7.47614602 5.2247436 11.58718718 5.31738281 15.69824219 C5.35571565 17.47909473 5.39056089 19.26002584 5.421875 21.04101562 C5.46743271 23.59794234 5.52544107 26.1543261 5.5859375 28.7109375 C5.59748871 29.50994476 5.60903992 30.30895203 5.62094116 31.13217163 C5.57258944 35.53457212 5.57258944 35.53457212 8 39 C11.05793321 39.19371593 14.02501234 39.26212247 17.08374023 39.24291992 C18.02530975 39.24481827 18.96687927 39.24671661 19.9369812 39.24867249 C23.06093577 39.25238828 26.18465971 39.24166382 29.30859375 39.23046875 C31.4733121 39.22927719 33.63803097 39.22882374 35.80274963 39.2290802 C40.34485093 39.22751389 44.88687357 39.2192136 49.42895508 39.20581055 C55.25783886 39.18883065 61.08663603 39.18499585 66.91554165 39.18575573 C71.38756643 39.18548406 75.85957219 39.18000311 80.33159065 39.17275429 C82.48103758 39.16956673 84.63048667 39.16760001 86.77993584 39.16686058 C89.78228312 39.16469739 92.78453778 39.15595319 95.78686523 39.14526367 C96.67995895 39.14571686 97.57305267 39.14617004 98.49320984 39.14663696 C99.71931976 39.14023949 99.71931976 39.14023949 100.97019958 39.13371277 C101.68014792 39.13203692 102.39009626 39.13036108 103.12155819 39.12863445 C105.22811152 39.06322698 105.22811152 39.06322698 108 38 C108 39.32 108 40.64 108 42 C106.85185822 42.01030746 105.70371643 42.02061493 104.52078247 42.03123474 C93.71970066 42.12883785 82.91867815 42.23155932 72.11769295 42.33933926 C66.5643223 42.39458896 61.01094641 42.44801223 55.45751953 42.49731445 C50.10179826 42.5449278 44.74614247 42.5972695 39.39049911 42.65294075 C37.34351092 42.67337805 35.29650476 42.69208882 33.24948502 42.70907402 C30.39037813 42.7330876 27.53139572 42.76314629 24.67236328 42.79467773 C23.39274719 42.80331093 23.39274719 42.80331093 22.08728027 42.81211853 C17.90981493 42.75544922 17.90981493 42.75544922 14 44 C14 43.34 14 42.68 14 42 C13.46375 42.226875 12.9275 42.45375 12.375 42.6875 C8.76682733 43.16225956 6.97144179 42.00249338 4 40 C1.81791121 35.25448651 1.94491707 31.13697857 2.4375 26.0625 C3.06344146 18.0170776 3.24869406 10.00250018 2 2 C1.34 1.34 0.68 0.68 0 0 Z " fill="#1443A7" transform="translate(192,209)"/>
<path d="M0 0 C10.89 2.97 10.89 2.97 22 6 C21.67 6.66 21.34 7.32 21 8 C18.9375 8.625 18.9375 8.625 17 9 C16.34 8.01 15.68 7.02 15 6 C15 6.66 15 7.32 15 8 C12.36 8 9.72 8 7 8 C6.67 8.66 6.34 9.32 6 10 C6.969375 10.268125 7.93875 10.53625 8.9375 10.8125 C9.948125 11.204375 10.95875 11.59625 12 12 C12.33 12.99 12.66 13.98 13 15 C12 16 12 16 9.6640625 16.01953125 C2.63937581 15.54098576 -4.93013051 14.87196178 -11 11 C-11.80078125 8.359375 -11.80078125 8.359375 -12 6 C-8.04476345 3.24331998 -4.77576339 2.4682121 0 2 C0 1.34 0 0.68 0 0 Z " fill="#375DC8" transform="translate(170,174)"/>
<path d="M0 0 C2.97 0 5.94 0 9 0 C9 8.58 9 17.16 9 26 C7 26 5 26 3 26 C3 25.34 3 24.68 3 24 C2.01 24 1.02 24 0 24 C0 16.08 0 8.16 0 0 Z " fill="#1245BB" transform="translate(300,226)"/>
<path d="M0 0 C3 2 3 2 3.5 4.3125 C2.77092731 8.23126569 1.08851309 9.53714839 -2 12 C-4.87346615 12.46996025 -7.14133911 12.63720107 -10.00317383 12.56762695 C-11.18932785 12.56872215 -11.18932785 12.56872215 -12.39944458 12.56983948 C-15.00268115 12.56636721 -17.60410889 12.5275257 -20.20703125 12.48828125 C-22.01591515 12.47895178 -23.82481171 12.4718363 -25.63371277 12.46684265 C-30.38678072 12.44778331 -35.13908053 12.39869187 -39.8918457 12.34332275 C-44.74484873 12.2921072 -49.59797629 12.2693237 -54.45117188 12.24414062 C-63.96778477 12.19057195 -73.48382842 12.10527214 -83 12 C-83.66 9.69 -84.32 7.38 -85 5 C-87.97 5 -90.94 5 -94 5 C-93.34 4.67 -92.68 4.34 -92 4 C-91.67 3.34 -91.34 2.68 -91 2 C-91 2.66 -91 3.32 -91 4 C-77.14 4 -63.28 4 -49 4 C-48.67 3.34 -48.34 2.68 -48 2 C-48 2.99 -48 3.98 -48 5 C-58.89 5 -69.78 5 -81 5 C-81.33 6.32 -81.66 7.64 -82 9 C-69.625 8.505 -69.625 8.505 -57 8 C-57 8.66 -57 9.32 -57 10 C-49.36450914 10.02531216 -41.72902905 10.04285088 -34.09350586 10.05493164 C-31.49486893 10.05996681 -28.89623485 10.0667953 -26.29760742 10.07543945 C-22.56688741 10.08754062 -18.83620478 10.09323641 -15.10546875 10.09765625 C-13.93976852 10.10281754 -12.7740683 10.10797882 -11.57304382 10.11329651 C-9.9517028 10.11340981 -9.9517028 10.11340981 -8.29760742 10.11352539 C-7.34496506 10.115746 -6.39232269 10.11796661 -5.41081238 10.12025452 C-2.85526502 10.10096182 -2.85526502 10.10096182 0 9 C0.93380961 4.46859347 0.93380961 4.46859347 0 0 Z " fill="#1844AB" transform="translate(319,266)"/>
<path d="M0 0 C4.62 0 9.24 0 14 0 C14 4.95 14 9.9 14 15 C9.38 15 4.76 15 0 15 C0 10.05 0 5.1 0 0 Z " fill="#882AE0" transform="translate(266,197)"/>
<path d="M0 0 C4.62 0 9.24 0 14 0 C14 4.95 14 9.9 14 15 C9.38 15 4.76 15 0 15 C0 10.05 0 5.1 0 0 Z " fill="#8632D7" transform="translate(286,156)"/>
<path d="M0 0 C4.29 0 8.58 0 13 0 C13 4.29 13 8.58 13 13 C8.71 13 4.42 13 0 13 C0 8.71 0 4.42 0 0 Z " fill="#8132D1" transform="translate(239,217)"/>
<path d="M0 0 C8.58 0 17.16 0 26 0 C26 1.98 26 3.96 26 6 C18.08 6.33 10.16 6.66 2 7 C2 5.02 2 3.04 2 1 C1.34 0.67 0.68 0.34 0 0 Z " fill="#0C42C2" transform="translate(230,178)"/>
<path d="M0 0 C8.49609375 -0.09765625 8.49609375 -0.09765625 11 0 C12 1 12 1 12.09765625 3.50390625 C12.08605469 4.51324219 12.07445312 5.52257812 12.0625 6.5625 C12.05347656 7.57441406 12.04445313 8.58632812 12.03515625 9.62890625 C12.02355469 10.41136719 12.01195312 11.19382813 12 12 C10.37585622 12.19477739 8.75063577 12.38059458 7.125 12.5625 C6.22007812 12.66691406 5.31515625 12.77132812 4.3828125 12.87890625 C2 13 2 13 0 12 C0 8.04 0 4.08 0 0 Z " fill="#3EB8F9" transform="translate(258,216)"/>
<path d="M0 0 C3.96 0 7.92 0 12 0 C12 3.96 12 7.92 12 12 C8.04 12 4.08 12 0 12 C0 8.04 0 4.08 0 0 Z " fill="#1B72A4" transform="translate(247,203)"/>
<path d="M0 0 C9.57 0 19.14 0 29 0 C29 9.57 29 19.14 29 29 C19.43 29 9.86 29 0 29 C0 28.67 0 28.34 0 28 C8.91 28 17.82 28 27 28 C27 19.09 27 10.18 27 1 C24.03 1.66 21.06 2.32 18 3 C15.1796875 3.01171875 15.1796875 3.01171875 12.875 2.6875 C11.6375 2.52507812 11.6375 2.52507812 10.375 2.359375 C9.199375 2.18148437 9.199375 2.18148437 8 2 C6.9171875 1.85304687 6.9171875 1.85304687 5.8125 1.703125 C4.20632636 1.48292378 2.60274669 1.24389624 1 1 C0.67 2.32 0.34 3.64 0 5 C0 3.35 0 1.7 0 0 Z " fill="#2473A0" transform="translate(306,155)"/>
<path d="M0 0 C1.65 0 3.3 0 5 0 C5.0093457 1.09989258 5.01869141 2.19978516 5.02832031 3.33300781 C5.06822937 7.41854166 5.13399004 11.50332319 5.20751953 15.58837891 C5.23572397 17.35553311 5.25694118 19.12281334 5.27099609 20.89013672 C5.29243358 23.43262222 5.33908503 25.97359338 5.390625 28.515625 C5.39185364 29.30430969 5.39308228 30.09299438 5.39434814 30.90557861 C5.49296021 34.60861763 5.67791933 36.60013847 8.03808594 39.53027344 C8.68551758 40.0152832 9.33294922 40.50029297 10 41 C8.02 40.67 6.04 40.34 4 40 C2.01189358 35.15446306 1.94100654 31.177264 2.4375 26.0625 C3.06344146 18.0170776 3.24869406 10.00250018 2 2 C1.34 1.34 0.68 0.68 0 0 Z " fill="#1A46B2" transform="translate(192,209)"/>
<path d="M0 0 C4.62 0 9.24 0 14 0 C14 4.95 14 9.9 14 15 C9.38 15 4.76 15 0 15 C0 10.05 0 5.1 0 0 Z M1 2 C1 5.63 1 9.26 1 13 C6.50184394 13.09265975 6.50184394 13.09265975 12 13 C13.23267348 11.99163938 13.23267348 11.99163938 13.09765625 9.93359375 C13.08605469 9.10988281 13.07445312 8.28617188 13.0625 7.4375 C13.05347656 6.61121094 13.04445313 5.78492188 13.03515625 4.93359375 C13.02355469 4.29550781 13.01195312 3.65742188 13 3 C10.47524538 1.73762269 8.68799534 1.90143596 5.875 1.9375 C4.26625 1.958125 2.6575 1.97875 1 2 Z " fill="#783DC0" transform="translate(266,197)"/>
<path d="M0 0 C0.76595993 -0.0033284 1.53191986 -0.0066568 2.3210907 -0.01008606 C3.94606932 -0.01515956 5.57105839 -0.01749426 7.19604492 -0.01733398 C9.67839893 -0.01951297 12.16030329 -0.03764299 14.64257812 -0.05664062 C16.22005056 -0.05957599 17.79752511 -0.06155983 19.375 -0.0625 C20.11680008 -0.06968552 20.85860016 -0.07687103 21.62287903 -0.08427429 C25.68961398 -0.06632837 27.64153841 0.29537858 31.38671875 2.16796875 C18.84671875 2.16796875 6.30671875 2.16796875 -6.61328125 2.16796875 C-6.94328125 3.15796875 -7.27328125 4.14796875 -7.61328125 5.16796875 C-8.17578125 3.23046875 -8.17578125 3.23046875 -8.61328125 1.16796875 C-6.62802038 -0.81729212 -2.7170208 0.00404289 0 0 Z " fill="#1C46A7" transform="translate(236.61328125,262.83203125)"/>
<path d="M0 0 C0.33 0.66 0.66 1.32 1 2 C1.66 2 2.32 2 3 2 C3 3.98 3 5.96 3 8 C-3.4 11.07692308 -3.4 11.07692308 -6.4375 10.6875 C-6.953125 10.460625 -7.46875 10.23375 -8 10 C-7.01 8.68 -6.02 7.36 -5 6 C-5.66 6 -6.32 6 -7 6 C-6.875 4.125 -6.875 4.125 -6 2 C-2.9375 0.75 -2.9375 0.75 0 0 Z " fill="#DBC4E9" transform="translate(229,177)"/>
<path d="M0 0 C1.65 0 3.3 0 5 0 C5 1.32 5 2.64 5 4 C5.66 4 6.32 4 7 4 C7 6.31 7 8.62 7 11 C2.80410573 12.16552619 2.17908064 12.08954032 -2 10 C-1.34 6.7 -0.68 3.4 0 0 Z " fill="#0A75AD" transform="translate(284,214)"/>
<path d="M0 0 C4.95 0 9.9 0 15 0 C15 4.95 15 9.9 15 15 C10.05 15 5.1 15 0 15 C0 10.05 0 5.1 0 0 Z M1 1 C1 5.29 1 9.58 1 14 C2.60875 14.020625 4.2175 14.04125 5.875 14.0625 C7.23238281 14.07990234 7.23238281 14.07990234 8.6171875 14.09765625 C11.0168585 14.16249257 11.0168585 14.16249257 13 13 C13 9.04 13 5.08 13 1 C9.04 1 5.08 1 1 1 Z " fill="#2E709A" transform="translate(278,212)"/>
<path d="M0 0 C-0.185625 0.763125 -0.37125 1.52625 -0.5625 2.3125 C-1.22819173 5.08967375 -1.22819173 5.08967375 0 8 C-1.258125 8.04125 -2.51625 8.0825 -3.8125 8.125 C-4.52019531 8.14820313 -5.22789062 8.17140625 -5.95703125 8.1953125 C-8 8 -8 8 -11 6 C-10.67 4.35 -10.34 2.7 -10 1 C-8.71073008 0.63720544 -7.41846728 0.28503302 -6.125 -0.0625 C-5.40570313 -0.25972656 -4.68640625 -0.45695313 -3.9453125 -0.66015625 C-2 -1 -2 -1 0 0 Z " fill="#2451C1" transform="translate(169,178)"/>
<path d="M0 0 C0 0.33 0 0.66 0 1 C-0.89203125 1.13277344 -1.7840625 1.26554688 -2.703125 1.40234375 C-3.87359375 1.57894531 -5.0440625 1.75554687 -6.25 1.9375 C-7.99023438 2.19853516 -7.99023438 2.19853516 -9.765625 2.46484375 C-12.23106961 2.8727736 -14.59424562 3.33901303 -17 4 C-16.67 4.99 -16.34 5.98 -16 7 C-19.48622676 7.87155669 -21.57385733 7.90692012 -25 7 C-26.58025005 6.78807905 -28.16398461 6.60076629 -29.75 6.4375 C-30.54921875 6.35371094 -31.3484375 6.26992187 -32.171875 6.18359375 C-32.77515625 6.12300781 -33.3784375 6.06242188 -34 6 C-34 5.67 -34 5.34 -34 5 C-33.26136719 4.89042969 -32.52273437 4.78085938 -31.76171875 4.66796875 C-26.53367565 3.85087942 -21.50273358 2.91945706 -16.4375 1.375 C-10.9062705 -0.22954034 -5.7209151 -0.29877119 0 0 Z " fill="#8A97E6" transform="translate(225,176)"/>
<path d="M0 0 C8.58 0 17.16 0 26 0 C26 1.98 26 3.96 26 6 C18.08 6.33 10.16 6.66 2 7 C2 5.02 2 3.04 2 1 C1.34 0.67 0.68 0.34 0 0 Z M5 1 C4.67 2.32 4.34 3.64 4 5 C10.93 5 17.86 5 25 5 C25 3.68 25 2.36 25 1 C18.4 1 11.8 1 5 1 Z " fill="#3A5DB5" transform="translate(230,178)"/>
<path d="M0 0 C8.49609375 -0.09765625 8.49609375 -0.09765625 11 0 C12 1 12 1 12.09765625 3.50390625 C12.08605469 4.51324219 12.07445312 5.52257812 12.0625 6.5625 C12.05347656 7.57441406 12.04445313 8.58632812 12.03515625 9.62890625 C12.02355469 10.41136719 12.01195312 11.19382813 12 12 C11.67 12 11.34 12 11 12 C11 10.02 11 8.04 11 6 C9.35 6 7.7 6 6 6 C6 5.34 6 4.68 6 4 C6.66 4 7.32 4 8 4 C8 3.01 8 2.02 8 1 C5.69 1 3.38 1 1 1 C1.33 4.63 1.66 8.26 2 12 C1.34 12 0.68 12 0 12 C0 8.04 0 4.08 0 0 Z " fill="#4BA9E6" transform="translate(258,216)"/>
<path d="M0 0 C0.66 0 1.32 0 2 0 C2 0.66 2 1.32 2 2 C2.66 2.33 3.32 2.66 4 3 C3.67 3.99 3.34 4.98 3 6 C0.34765625 7.16796875 0.34765625 7.16796875 -2.9375 8.1875 C-4.01902344 8.53167969 -5.10054687 8.87585938 -6.21484375 9.23046875 C-9 10 -9 10 -11 10 C-11 9.34 -11 8.68 -11 8 C-9.39125 7.690625 -9.39125 7.690625 -7.75 7.375 C-3.26672491 5.73113247 -2.35912663 4.01925278 0 0 Z " fill="#B5A8E2" transform="translate(212,184)"/>
<path d="M0 0 C4.86896303 0.59619955 9.32790951 1.56976822 14 3 C13.67 3.66 13.34 4.32 13 5 C10.9375 5.625 10.9375 5.625 9 6 C8.34 5.01 7.68 4.02 7 3 C7 3.66 7 4.32 7 5 C5.35 5 3.7 5 2 5 C1.34 3.35 0.68 1.7 0 0 Z " fill="#5674D8" transform="translate(178,177)"/>
<path d="M0 0 C0 0.66 0 1.32 0 2 C-1.98 2.33 -3.96 2.66 -6 3 C-6 4.65 -6 6.3 -6 8 C-1.545 8.99 -1.545 8.99 3 10 C-1.92506349 11.23126587 -3.64871974 10.46298883 -8 8 C-8.9375 5.3125 -8.9375 5.3125 -9 3 C-3.375 0 -3.375 0 0 0 Z " fill="#2D52B3" transform="translate(167,163)"/>
<path d="M0 0 C5.875 4.625 5.875 4.625 7 8 C6.01 8.33 5.02 8.66 4 9 C2.33289654 10.49985609 2.33289654 10.49985609 1 12 C0.36605303 7.95858806 -0.12404452 4.0934693 0 0 Z " fill="#1043B8" transform="translate(312,258)"/>
<path d="M0 0 C1.65 0.33 3.3 0.66 5 1 C5.33 2.65 5.66 4.3 6 6 C2.04476345 8.75668002 -1.22423661 9.5317879 -6 10 C-4.875 8.5 -4.875 8.5 -3 7 C0.1875 6.8125 0.1875 6.8125 3 7 C2.814375 6.38125 2.62875 5.7625 2.4375 5.125 C2 3 2 3 3 1 C2.01 0.67 1.02 0.34 0 0 Z " fill="#1B48AE" transform="translate(228,164)"/>
<path d="M0 0 C4.95 0.99 4.95 0.99 10 2 C10 2.66 10 3.32 10 4 C8.68 4 7.36 4 6 4 C5.67 4.99 5.34 5.98 5 7 C1.5084773 4.74740471 1.07356469 4.29425875 0 0 Z " fill="#1345BC" transform="translate(218,161)"/>
<path d="M0 0 C3.125 6.25 3.125 6.25 2 11 C-1.89847716 7.7106599 -1.89847716 7.7106599 -2.375 4.375 C-2 2 -2 2 0 0 Z " fill="#1343AF" transform="translate(178,266)"/>
<path d="M0 0 C0.33 0.99 0.66 1.98 1 3 C0.67 3.33 0.34 3.66 0 4 C-2.02408755 3.90997602 -4.04544287 3.75358962 -6.0625 3.5625 C-7.71958984 3.40974609 -7.71958984 3.40974609 -9.41015625 3.25390625 C-10.69212891 3.12822266 -10.69212891 3.12822266 -12 3 C-12 2.67 -12 2.34 -12 2 C-7.8803623 0.70756464 -4.33168317 -0.26252625 0 0 Z " fill="#536ECE" transform="translate(182,186)"/>
<path d="M0 0 C0.33 0 0.66 0 1 0 C1.02578125 0.89203125 1.0515625 1.7840625 1.078125 2.703125 C1.13484375 3.87359375 1.1915625 5.0440625 1.25 6.25 C1.29640625 7.41015625 1.3428125 8.5703125 1.390625 9.765625 C2.08791275 13.46661382 3.11785184 14.67122429 6 17 C4.02 16.67 2.04 16.34 0 16 C-0.9360342 12.20732808 -0.98276252 9.06325435 -0.5625 5.1875 C-0.40974609 3.72376953 -0.40974609 3.72376953 -0.25390625 2.23046875 C-0.12822266 1.12638672 -0.12822266 1.12638672 0 0 Z " fill="#1D48A6" transform="translate(196,233)"/>
<path d="M0 0 C0 2.64 0 5.28 0 8 C-0.66 8 -1.32 8 -2 8 C-2 7.34 -2 6.68 -2 6 C-2.66 6 -3.32 6 -4 6 C-4.33 4.35 -4.66 2.7 -5 1 C-1.125 0 -1.125 0 0 0 Z " fill="#EBCAF3" transform="translate(230,177)"/>
<path d="M0 0 C-0.66 1.65 -1.32 3.3 -2 5 C-2.66 5 -3.32 5 -4 5 C-4.33 5.66 -4.66 6.32 -5 7 C-5 6.34 -5 5.68 -5 5 C-5.66 5 -6.32 5 -7 5 C-7 3.68 -7 2.36 -7 1 C-4.50935112 0.31292445 -2.62113708 0 0 0 Z " fill="#1646BC" transform="translate(174,161)"/>
<path d="M0 0 C0.66 0 1.32 0 2 0 C2 0.66 2 1.32 2 2 C2.66 2.33 3.32 2.66 4 3 C3.01 4.485 3.01 4.485 2 6 C-0.625 6.1875 -0.625 6.1875 -3 6 C-2.01 4.02 -1.02 2.04 0 0 Z " fill="#4262CE" transform="translate(174,182)"/>
<path d="M0 0 C0 0.33 0 0.66 0 1 C-0.89203125 1.13277344 -1.7840625 1.26554688 -2.703125 1.40234375 C-4.45882812 1.66724609 -4.45882812 1.66724609 -6.25 1.9375 C-7.99023438 2.19853516 -7.99023438 2.19853516 -9.765625 2.46484375 C-12.23106961 2.8727736 -14.59424562 3.33901303 -17 4 C-17 3.34 -17 2.68 -17 2 C-11.35600642 -0.44064587 -6.02248522 -0.19289099 0 0 Z " fill="#A4A6EB" transform="translate(225,176)"/>
<path d="M0 0 C-5.00932754 3.00559652 -8.32723489 3.29341888 -14 3 C-4.91666667 -1.89102564 -4.91666667 -1.89102564 0 0 Z " fill="#1E4AB0" transform="translate(188,158)"/>
<path d="M0 0 C0.99 0 1.98 0 3 0 C3.33 0.99 3.66 1.98 4 3 C3.67 3.66 3.34 4.32 3 5 C1.68 4.67 0.36 4.34 -1 4 C-0.67 2.68 -0.34 1.36 0 0 Z " fill="#1449C2" transform="translate(160,179)"/>
<path d="M0 0 C0.33 0.66 0.66 1.32 1 2 C1.66 2.33 2.32 2.66 3 3 C0.33333333 4.33333333 -2.33333333 5.66666667 -5 7 C-3.70700306 4.11562221 -2.34058637 2.12780579 0 0 Z " fill="#1543B1" transform="translate(184,259)"/>
</svg>
